<svg id="visual" viewBox="0 0 900 600" width="900" height="600" xmlns="http://www.w3.org/2000/svg" xmlns:xlink="http://www.w3.org/1999/xlink" version="1.1"><rect x="0" y="0" width="900" height="600" fill="#00223300"></rect><path d="M0 369L37.5 380.3C75 391.7 150 414.3 225 357.7C300 301 375 165 450 125.2C525 85.3 600 141.7 675 141C750 140.3 825 82.7 862.5 53.8L900 25L900 601L862.5 601C825 601 750 601 675 601C600 601 525 601 450 601C375 601 300 601 225 601C150 601 75 601 37.5 601L0 601Z" fill="#0066FF" stroke-linecap="round" stroke-linejoin="miter"></path></svg>